Coordinates
version=1
nRows=16
nColumns=38
inDegrees=no

Units are S.I. units (second, meters, Newtons, ...)
If the header above contains a line with 'inDegrees', this indicates whether rotational values are in degrees (yes) or radians (no).

endheader
time	pelvis_tilt	pelvis_list	pelvis_rotation	pelvis_tx	pelvis_ty	pelvis_tz	hip_flexion_r	hip_adduction_r	hip_rotation_r	knee_angle_r	ankle_angle_r	subtalar_angle_r	mtp_angle_r	hip_flexion_l	hip_adduction_l	hip_rotation_l	knee_angle_l	ankle_angle_l	subtalar_angle_l	mtp_angle_l	lumbar_extension	lumbar_bending	lumbar_rotation	arm_flex_r	arm_add_r	arm_rot_r	elbow_flex_r	pro_sup_r	wrist_flex_r	wrist_dev_r	arm_flex_l	arm_add_l	arm_rot_l	elbow_flex_l	pro_sup_l	wrist_flex_l	wrist_dev_l
3.86	-0.00507891	-0.0320685	0.0633219	0.830588	0.94157	-0.332137	0.670503	0.0496121	-0.177194	-0.45994	0.117052	0.0256835	-4.45709e-05	-0.29707	-0.111495	-0.0706513	-1.30112	-0.560682	0.00136458	-9.88808e-05	-0.306623	0.0861572	-0.22587	-0.977987	-0.216979	-0.229186	1.89518	1.5271	0.0998652	0.0738132	-0.0147012	-0.55294	0.146567	2.22977	2.10265	0.0997978	-0.0973566
3.87	0.00497658	-0.0412639	0.040033	0.832588	0.936043	-0.329953	0.6385	0.0772999	-0.176943	-0.503506	0.0990962	0.0256835	-4.45709e-05	-0.25932	-0.1333	-0.100865	-1.44063	-0.547093	0.00136458	-9.88808e-05	-0.317381	0.0893325	-0.187848	-0.946616	-0.236464	-0.216177	1.90477	1.52608	0.0998652	0.0738132	-0.066704	-0.541157	0.136703	2.18932	2.12683	0.0997978	-0.0973566
3.88	0.0140684	-0.0553024	0.0143842	0.833982	0.930175	-0.327629	0.611491	0.110828	-0.172204	-0.562349	0.0893473	0.0256835	-4.45709e-05	-0.215594	-0.157624	-0.125995	-1.5735	-0.532567	0.00136458	-9.88808e-05	-0.32865	0.0964382	-0.143517	-0.908535	-0.259064	-0.202608	1.91072	1.52376	0.0998652	0.0738132	-0.116786	-0.528067	0.124851	2.14682	2.15433	0.0997978	-0.0973566
3.89	0.0215754	-0.0724278	-0.0122627	0.834617	0.924666	-0.325332	0.5885	0.147832	-0.162467	-0.630766	0.0922997	0.0256835	-4.45709e-05	-0.163744	-0.181969	-0.143013	-1.69787	-0.516805	0.00136458	-9.88808e-05	-0.340262	0.105839	-0.094989	-0.862806	-0.284069	-0.187856	1.91204	1.52134	0.0998652	0.0738132	-0.164183	-0.513697	0.111059	2.10441	2.18593	0.0997978	-0.0973566
3.9	0.0271192	-0.0906104	-0.038438	0.834331	0.920089	-0.323139	0.567665	0.185485	-0.147692	-0.702531	0.110708	0.0256835	-4.45709e-05	-0.10197	-0.203731	-0.150096	-1.81196	-0.499299	0.00136458	-9.88808e-05	-0.352014	0.115616	-0.0448253	-0.808896	-0.310913	-0.171311	1.90842	1.52003	0.0998652	0.0738132	-0.208788	-0.498114	0.0951119	2.06408	2.2218	0.0997978	-0.0973566
3.91	0.0305417	-0.107625	-0.0626654	0.833041	0.916527	-0.321109	0.546609	0.220769	-0.12832	-0.771538	0.144889	0.0256835	-4.45709e-05	-0.0292712	-0.220411	-0.146739	-1.91383	-0.479414	0.00136458	-9.88808e-05	-0.363623	0.123811	0.00420818	-0.746918	-0.339153	-0.152559	1.90044	1.5208	0.0998652	0.0738132	-0.251031	-0.481447	0.0766206	2.02734	2.26121	0.0997978	-0.0973566
3.92	0.031931	-0.121281	-0.0836219	0.830825	0.913809	-0.319491	0.522989	0.250761	-0.105283	-0.832506	0.192662	0.0256835	-4.45709e-05	0.0542963	-0.229902	-0.133749	-2.00134	-0.456528	0.00136458	-9.88808e-05	-0.374663	0.128643	0.0494651	-0.677762	-0.368378	-0.131527	1.88953	1.52419	0.0998652	0.0738132	-0.291646	-0.463949	0.0551909	1.99508	2.30245	0.0997978	-0.0973566
3.93	0.0315813	-0.129712	-0.100294	0.827901	0.911873	-0.318528	0.494975	0.272935	-0.0799375	-0.881494	0.24983	0.0256835	-4.45709e-05	0.147568	-0.230827	-0.113146	-2.07227	-0.430189	0.00136458	-9.88808e-05	-0.384572	0.128699	0.0887914	-0.603071	-0.398134	-0.108554	1.87787	1.53023	0.0998652	0.0738132	-0.331397	-0.446033	0.0306217	1.96759	2.343	0.0997978	-0.0973566
3.94	0.0298362	-0.131678	-0.112141	0.824558	0.91081	-0.318157	0.461465	0.285448	-0.0538792	-0.916112	0.310905	0.0256835	-4.45709e-05	0.248354	-0.222834	-0.0879044	-2.12451	-0.400255	0.00136458	-9.88808e-05	-0.392752	0.123047	0.120842	-0.525044	-0.427902	-0.0843761	1.868	1.53837	0.0998652	0.0738132	-0.370872	-0.428276	0.00308204	1.94468	2.37974	0.0997978	-0.0973566
3.95	0.0270473	-0.126743	-0.119211	0.82111	0.91075	-0.318096	0.422064	0.287337	-0.0286787	-0.935385	0.369789	0.0256835	-4.45709e-05	0.353629	-0.206723	-0.061577	-2.15628	-0.366968	0.00136458	-9.88808e-05	-0.398686	0.111291	0.145268	-0.446126	-0.457151	-0.0599901	1.8624	1.5475	0.0998652	0.0738132	-0.410402	-0.411338	-0.0268199	1.92603	2.40928	0.0997978	-0.0973566
3.96	0.0235562	-0.115158	-0.122186	0.817876	0.911785	-0.318143	0.37686	0.278628	-0.00564206	-0.939454	0.420309	0.0256835	-4.45709e-05	0.459755	-0.184347	-0.0378128	-2.16632	-0.33091	0.00136458	-9.88808e-05	-0.402084	0.0935941	0.162726	-0.368668	-0.485438	-0.0364653	1.86307	1.55611	0.0998652	0.0738132	-0.450096	-0.39582	-0.0581177	1.91135	2.4286	0.0997978	-0.0973566
3.97	0.019751	-0.0978407	-0.122297	0.815128	0.913949	-0.318203	0.326176	0.260213	0.0143395	-0.929216	0.456636	0.0256835	-4.45709e-05	0.562757	-0.158255	-0.0198498	-2.15397	-0.292882	0.00136458	-9.88808e-05	-0.402958	0.0705687	0.174682	-0.294666	-0.512472	-0.0147693	1.87125	1.56247	0.0998652	0.0738132	-0.489915	-0.38212	-0.0896534	1.90054	2.43558	0.0997978	-0.0973566
3.98	0.0160125	-0.0761876	-0.121087	0.813063	0.917252	-0.318186	0.270405	0.233653	0.0308098	-0.906057	0.473677	0.0256835	-4.45709e-05	0.65865	-0.131178	-0.0100237	-2.11921	-0.253739	0.00136458	-9.88808e-05	-0.401608	0.0431767	0.183079	-0.225633	-0.538133	0.00434581	1.88723	1.56496	0.0998652	0.0738132	-0.529743	-0.370337	-0.120285	1.89366	2.4295	0.0997978	-0.0973566
3.99	0.0127367	-0.0518684	-0.120115	0.811796	0.921679	-0.318022	0.210003	0.200926	0.0436328	-0.871651	0.467511	0.0256835	-4.45709e-05	0.743827	-0.105528	-0.00939544	-2.06262	-0.214275	0.00136458	-9.88808e-05	-0.398489	0.0126728	0.189949	-0.162632	-0.562439	0.020366	1.91048	1.56245	0.0998652	0.0738132	-0.569419	-0.360263	-0.149046	1.89075	2.41121	0.0997978	-0.0973566
4	0.0102493	-0.0266743	-0.120631	0.811372	0.927182	-0.317706	0.145552	0.164203	0.0528273	-0.827882	0.435862	0.0256835	-4.45709e-05	0.81539	-0.0830233	-0.0175894	-1.98529	-0.175183	0.00136458	-9.88808e-05	-0.394068	-0.0194495	0.197057	-0.106386	-0.585491	0.0329791	1.9398	1.55463	0.0998652	0.0738132	-0.608749	-0.351457	-0.175234	1.89178	2.38306	0.0997978	-0.0973566
4.01	0.00872714	-0.00235845	-0.12334	0.811778	0.933644	-0.317272	0.0778629	0.1257	0.0584386	-0.776868	0.378556	0.0256835	-4.45709e-05	0.871395	-0.0645384	-0.0328987	-1.88874	-0.137098	0.00136458	-9.88808e-05	-0.388709	-0.0515054	0.205639	-0.0574301	-0.60742	0.0420061	1.97363	1.54216	0.0998652	0.0738132	-0.647491	-0.343367	-0.198456	1.89657	2.34851	0.0997978	-0.0973566
